<svg xmlns="http://www.w3.org/2000/svg" class="h-16 w-16 text-gray-900" viewBox="0 0 700.000000 700.000000" preserveAspectRatio="xMidYMid meet">
  <g transform="translate(0.000000,700.000000) scale(0.100000,-0.100000)" fill="white" stroke="none">
    <path d="M0 3800 l0 -2670 1328 -2 c1480 -3 1360 2 1521 -74 272 -128 457
             -390 478 -676 l6 -78 167 0 167 0 6 78 c15 199 109 389 265 533 38 35 97 80
             131 99 34 19 68 40 76 45 12 8 -1 30 -70 118 -46 60 -93 120 -103 134 l-18 25
             -55 -33 c-73 -44 -124 -83 -181 -138 l-48 -45 0 290 0 290 -45 61 -45 60 -87
             -33 c-49 -18 -105 -35 -125 -39 l-38 -7 0 -310 0 -310 -59 55 c-144 132 -327
             224 -551 274 -67 15 -195 17 -1232 20 l-1158 4 0 2330 0 2330 1013 -3 1012 -3
             96 -27 c435 -119 737 -425 851 -861 20 -77 22 -113 27 -566 l6 -483 85 -25
             c46 -13 122 -41 167 -63 l82 -38 3 546 4 547 26 98 c108 395 387 694 769 821
             167 56 168 56 1225 56 l974 0 0 -2330 0 -2330 -1040 -2 -1040 -3 77 -100 c42
             -55 100 -130 130 -167 l54 -68 1074 0 1075 0 0 2670 0 2671 -1167 -4 c-1295
             -4 -1219 0 -1448 -72 -345 -108 -658 -352 -830 -648 -27 -47 -52 -86 -55 -86
             -3 0 -27 39 -55 86 -96 166 -269 347 -440 463 -148 100 -357 188 -532 225
             -154 31 -293 35 -1380 35 l-1093 0 0 -2670z" />
    <path d="M1320 4728 c-183 -480 -350 -917 -371 -971 l-38 -98 141 3 140 3 87
             245 86 245 439 0 439 0 22 -65 c13 -36 28 -77 33 -92 l11 -27 87 54 c47 30 95
             57 106 61 14 4 18 12 14 27 -3 12 -131 351 -284 752 l-278 730 -151 3 -150 3
             -333 -873z m658 137 c94 -253 173 -468 177 -477 7 -17 -14 -18 -349 -18 -210
             0 -356 4 -356 9 0 9 319 880 341 930 5 13 11 22 13 20 2 -2 81 -211 174 -464z" />
    <path d="M4323 5509 c-69 -20 -98 -115 -52 -172 83 -107 251 7 182 123 -26 45
             -77 64 -130 49z" />
    <path d="M4580 5410 l0 -110 705 0 706 0 -3 108 -3 107 -702 3 -703 2 0 -110z" />
    <path d="M4315 5071 c-40 -17 -60 -51 -60 -103 0 -43 4 -53 33 -79 47 -43 102
             -41 148 5 28 28 34 42 34 76 0 34 -6 48 -34 76 -35 35 -75 43 -121 25z" />
    <path d="M4580 4970 l0 -110 705 0 705 0 0 110 0 110 -705 0 -705 0 0 -110z" />
    <path d="M4294 4606 c-28 -28 -34 -42 -34 -76 0 -34 6 -48 34 -76 28 -28 42
             -34 76 -34 34 0 48 6 76 34 28 28 34 42 34 76 0 34 -6 48 -34 76 -28 28 -42
             34 -76 34 -34 0 -48 -6 -76 -34z" />
    <path d="M4590 4530 l0 -110 705 0 705 0 0 110 0 110 -705 0 -705 0 0 -110z" />
    <path d="M2889 4070 c-471 -80 -842 -451 -925 -925 -22 -120 -14 -348 14 -455
             118 -445 457 -763 901 -845 106 -19 283 -19 394 0 106 18 267 75 312 109 l34
             26 398 -529 c219 -292 401 -530 405 -531 9 0 258 189 258 197 0 3 -178 244
             -396 535 l-397 528 50 53 c98 105 188 278 234 453 21 79 24 110 23 274 0 167
             -3 194 -26 282 -116 428 -480 760 -908 828 -74 11 -302 12 -371 0z m431 -359
             c130 -44 220 -99 316 -195 95 -95 151 -185 195 -316 31 -89 33 -104 33 -235 1
             -159 -12 -222 -70 -344 -102 -217 -278 -367 -511 -433 -63 -18 -103 -22 -208
             -22 -153 0 -218 15 -350 79 -205 99 -353 278 -417 501 -29 104 -32 305 -5 404
             73 268 271 478 533 564 90 29 137 35 264 32 109 -3 137 -7 220 -35z" />
    <path d="M3330 2960 l0 -611 60 32 c81 43 170 126 227 212 l48 72 3 284 3 284
             -27 55 c-47 96 -204 243 -296 278 -17 6 -18 -27 -18 -606z" />
    <path d="M2421 3156 c-13 -32 -31 -133 -31 -168 l0 -28 110 0 110 0 0 110 0
             110 -90 0 c-86 0 -91 -1 -99 -24z" />
    <path d="M2430 2740 c0 -16 48 -109 83 -162 27 -41 37 -48 65 -48 l32 0 0 110
             0 110 -90 0 c-55 0 -90 -4 -90 -10z" />
    <path d="M4390 3880 l0 -110 600 -2 600 -3 -431 -535 c-238 -294 -515 -637
             -616 -762 l-183 -228 0 -95 0 -95 795 0 795 0 0 110 0 110 -626 2 -625 3 610
             755 610 755 1 103 0 102 -765 0 -765 0 0 -110z" />
    <path d="M904 3146 c-28 -28 -34 -42 -34 -76 0 -34 6 -48 34 -76 28 -28 42
             -34 76 -34 34 0 48 6 76 34 28 28 34 42 34 76 0 34 -6 48 -34 76 -28 28 -42
             34 -76 34 -34 0 -48 -6 -76 -34z" />
    <path d="M1200 3070 l0 -110 300 0 c232 0 302 3 304 13 3 6 7 56 10 110 l5 97
             -309 0 -310 0 0 -110z" />
    <path d="M954 2743 c-12 -2 -34 -18 -50 -34 -78 -81 6 -214 112 -179 18 6 43
             23 54 37 25 32 27 99 4 132 -15 21 -73 53 -91 50 -4 -1 -18 -4 -29 -6z" />
    <path d="M1200 2640 l0 -110 341 0 c321 0 341 1 334 18 -4 9 -17 58 -30 107
             l-23 90 -311 3 -311 2 0 -110z" />
    <path d="M943 2294 c-66 -33 -80 -125 -25 -176 34 -32 63 -39 107 -27 47 13
             75 52 75 103 0 48 -19 80 -60 101 -36 19 -57 19 -97 -1z" />
    <path d="M1210 2200 l0 -110 471 0 c529 0 482 -8 412 72 -18 21 -49 62 -69 93
             l-37 55 -388 0 -389 0 0 -110z" />
  </g>
</svg>
